<?xml version="1.0" standalone="no"?>
<!DOCTYPE svg PUBLIC "-//W3C//DTD SVG 20010904//EN"
 "http://www.w3.org/TR/2001/REC-SVG-20010904/DTD/svg10.dtd">
<svg version="1.0" xmlns="http://www.w3.org/2000/svg"
 width="38.7000000pt" height="36.4000000pt" viewBox="0 0 387.000000 364.000000"
 preserveAspectRatio="xMidYMid meet">
<metadata>
Created by potrace 1.15, written by Peter Selinger 2001-2017
</metadata>
<g transform="translate(0.000000,364.000000) scale(0.100000,-0.100000)"
fill="#000000" stroke="none">
<path d="M0 1820 l0 -1820 1935 0 1935 0 0 1820 0 1820 -1935 0 -1935 0 0
-1820z m2220 1185 l24 -145 36 -11 c19 -7 63 -24 97 -39 l62 -28 58 42 c32 23
86 62 121 86 l63 44 190 -190 c104 -104 189 -192 189 -195 0 -3 -38 -59 -85
-124 l-84 -117 23 -47 c13 -25 31 -67 41 -93 19 -52 9 -48 165 -73 52 -9 107
-18 123 -21 l27 -6 0 -257 c0 -191 -3 -261 -12 -273 -9 -11 -51 -21 -128 -33
-162 -23 -157 -22 -171 -63 -6 -21 -24 -62 -40 -93 l-28 -56 85 -118 c46 -65
84 -121 84 -124 0 -3 -85 -91 -189 -195 -136 -136 -193 -186 -202 -180 -8 4
-63 43 -122 85 l-109 77 -61 -28 c-34 -15 -78 -32 -98 -39 l-35 -11 -23 -145
-24 -145 -273 0 -274 0 -5 23 c-2 12 -14 76 -26 142 -11 66 -21 121 -22 121
-2 2 -180 74 -188 77 -3 1 -59 -35 -123 -80 -65 -46 -120 -83 -124 -83 -4 0
-92 85 -195 188 l-189 189 86 119 c48 65 84 123 82 129 -3 5 -21 48 -40 95
l-35 85 -145 25 -146 24 0 273 c0 150 3 273 6 273 9 0 244 39 270 45 13 3 24
16 29 32 3 16 20 58 37 95 l30 67 -64 88 c-35 48 -74 102 -85 119 l-22 30 192
192 192 192 121 -85 120 -84 80 34 c43 19 84 35 91 35 19 0 23 13 44 147 11
70 22 134 24 141 3 9 68 12 278 12 l273 0 24 -145z"/>
<path d="M1765 2656 c-540 -106 -843 -648 -641 -1148 82 -204 258 -378 466
-462 116 -47 187 -60 330 -60 181 0 299 31 450 120 l62 36 111 -76 111 -76 53
52 c32 31 49 56 44 62 -60 78 -141 196 -141 206 0 6 13 30 29 53 98 144 150
339 138 516 -27 371 -280 668 -652 766 -84 22 -273 28 -360 11z m327 -175
c306 -79 518 -351 518 -665 0 -116 -20 -199 -72 -306 -34 -68 -59 -102 -128
-170 -140 -141 -290 -203 -485 -202 -120 1 -191 18 -305 74 -120 58 -240 178
-298 298 -57 115 -73 184 -73 310 0 315 203 577 511 661 90 25 236 24 332 0z"/>
<path d="M1825 2256 c-78 -19 -141 -53 -204 -112 -251 -233 -153 -652 176
-754 258 -80 528 91 574 363 51 305 -243 577 -546 503z"/>
</g>
</svg>
